<!DOCTYPE svg PUBLIC "-//W3C//DTD SVG 1.1//EN" "http://www.w3.org/Graphics/SVG/1.1/DTD/svg11.dtd">
<!-- Uploaded to: SVG Repo, www.svgrepo.com, Transformed by: SVG Repo Mixer Tools -->
<svg width="800px" height="800px" viewBox="0 0 5.8208335 5.8208335" xmlns:dc="http://purl.org/dc/elements/1.1/" xmlns:cc="http://creativecommons.org/ns#" xmlns:rdf="http://www.w3.org/1999/02/22-rdf-syntax-ns#" xmlns="http://www.w3.org/2000/svg" id="svg8" version="1.1" fill="#000000">
<g id="SVGRepo_bgCarrier" stroke-width="0"/>
<g id="SVGRepo_tracerCarrier" stroke-linecap="round" stroke-linejoin="round"/>
<g id="SVGRepo_iconCarrier"> <metadata id="metadata5"> <rdf:rdf> <cc:work> <dc:format>image/svg+xml</dc:format> <dc:type rdf:resource="http://purl.org/dc/dcmitype/StillImage"/> <dc:title/> <dc:date>2021</dc:date> <dc:creator> <cc:agent> <dc:title>Timothée Giet</dc:title> </cc:agent> </dc:creator> <cc:license rdf:resource="http://creativecommons.org/licenses/by-sa/4.0/"/> </cc:work> <cc:license rdf:about="http://creativecommons.org/licenses/by-sa/4.0/"> <cc:permits rdf:resource="http://creativecommons.org/ns#Reproduction"/> <cc:permits rdf:resource="http://creativecommons.org/ns#Distribution"/> <cc:requires rdf:resource="http://creativecommons.org/ns#Notice"/> <cc:requires rdf:resource="http://creativecommons.org/ns#Attribution"/> <cc:permits rdf:resource="http://creativecommons.org/ns#DerivativeWorks"/> <cc:requires rdf:resource="http://creativecommons.org/ns#ShareAlike"/> </cc:license> </rdf:rdf> </metadata> <g transform="translate(0 -291.18)" id="layer1"> <path id="path5822" d="M2.646 293.56v.53l1.058 1.058v1.323l1.058.529v-1.852l1.059-1.058v-.53zm.529.53h2.117l-.794.793v1.588l-.53-.265v-1.323z" style="fill:#ffffff;fill-opacity:1;fill-rule:evenodd;stroke:none;stroke-width:.35277778px;stroke-linecap:butt;stroke-linejoin:miter;stroke-opacity:1"/> <g style="fill:#ffffff;fill-opacity:1" transform="matrix(.26458 0 0 .26458 -1.058 18.033)" id="layer1-6"> <path id="path824" d="M15 1035.362v2h-4a5 5 0 0 0 0 10h2v2h-2a7 7 0 0 1-7-7c0-3.866 3.134-7.06 7-7z" style="opacity:1;vector-effect:none;fill:#ffffff;fill-opacity:1;stroke:none;stroke-width:4;stroke-linecap:square;stroke-linejoin:round;stroke-miterlimit:4;stroke-dasharray:none;stroke-dashoffset:3.20000005;stroke-opacity:.55063291"/> <path id="path842" d="m17 1036.362-4 4v-8z" style="fill:#ffffff;fill-opacity:1;stroke:none;stroke-width:1px;stroke-linecap:butt;stroke-linejoin:miter;stroke-opacity:1"/> </g> </g> </g>
</svg>