<?xml version="1.0" standalone="no"?>
<!DOCTYPE svg PUBLIC "-//W3C//DTD SVG 20010904//EN"
 "http://www.w3.org/TR/2001/REC-SVG-20010904/DTD/svg10.dtd">
<svg version="1.0" xmlns="http://www.w3.org/2000/svg"
 width="512.000000pt" height="512.000000pt" viewBox="0 0 512.000000 512.000000"
 preserveAspectRatio="xMidYMid meet">

<g transform="translate(0.000000,512.000000) scale(0.100000,-0.100000)"
fill="#000000" stroke="none">
<path d="M4120 4834 c-162 -43 -307 -163 -381 -317 l-41 -85 -436 -5 c-459 -5
-485 -8 -625 -56 -203 -71 -358 -244 -419 -468 -17 -65 -22 -116 -25 -299 -6
-258 -2 -276 74 -321 79 -46 171 -21 218 58 18 30 21 59 26 244 6 180 10 219
28 270 41 114 99 174 206 214 88 33 201 41 588 41 341 0 368 -1 373 -17 26
-82 83 -173 148 -238 182 -181 441 -224 672 -114 94 45 218 168 262 259 59
122 78 263 51 392 -42 207 -225 394 -430 443 -80 18 -217 18 -289 -1z m261
-328 c47 -22 103 -78 125 -125 29 -58 30 -157 4 -220 -40 -91 -144 -161 -240
-161 -147 0 -270 123 -270 270 0 93 66 195 154 237 42 20 63 23 121 21 40 -2
86 -11 106 -22z"/>
<path d="M766 3140 c-134 -24 -232 -75 -327 -170 -229 -227 -226 -594 5 -825
117 -116 253 -170 421 -168 218 2 421 132 515 328 15 33 31 68 34 78 5 16 33
17 390 17 l385 0 3 -552 c4 -532 5 -556 26 -631 61 -221 202 -383 399 -459
148 -57 172 -60 645 -65 l438 -5 40 -85 c72 -155 218 -275 385 -318 69 -18
192 -20 267 -4 164 34 320 156 395 310 48 98 63 161 63 267 0 162 -54 288
-174 407 -155 154 -346 207 -550 155 -110 -28 -190 -74 -272 -155 -65 -65
-121 -156 -148 -238 -6 -18 -25 -19 -429 -15 -357 4 -431 7 -481 22 -135 38
-208 102 -255 224 l-26 67 -3 538 -3 537 596 -2 596 -3 23 -57 c87 -214 303
-360 536 -362 165 -1 300 53 414 167 237 236 237 598 0 834 -114 114 -248 168
-414 167 -232 -1 -449 -148 -536 -362 l-23 -57 -1141 -3 c-1080 -2 -1141 -1
-1146 15 -18 54 -69 145 -111 197 -121 150 -354 239 -537 206z m199 -339 c49
-22 99 -70 128 -125 30 -58 31 -174 0 -232 -82 -154 -267 -196 -404 -91 -98
74 -129 218 -71 327 66 128 215 179 347 121z m3425 -9 c99 -50 147 -140 137
-259 -9 -112 -80 -196 -194 -229 -117 -34 -245 24 -306 140 -30 58 -30 174 0
232 74 139 223 187 363 116z m-37 -1688 c64 -22 130 -82 157 -145 17 -42 21
-66 18 -118 -5 -77 -25 -125 -75 -174 -49 -50 -97 -70 -174 -75 -243 -15 -372
279 -198 449 76 74 174 97 272 63z"/>
</g>
</svg>
